<svg id="flat" height="512" viewBox="0 0 512 512" width="512" xmlns="http://www.w3.org/2000/svg"><path d="m45.108 56h157.785v16.001h-157.785z" fill="#8098ab" transform="matrix(.862 -.507 .507 .862 -15.329 71.714)"/><path d="m319.83-42.697h16v229.395h-16z" fill="#8098ab" transform="matrix(.418 -.908 .908 .418 125.243 339.61)"/><path d="m56 104h120v40h-120z" fill="#ffd873"/><path d="m176 96h-120a8.00008 8.00008 0 0 0 -8 8v40a8.00008 8.00008 0 0 0 8 8h120a8.00008 8.00008 0 0 0 8-8v-40a8.00008 8.00008 0 0 0 -8-8zm-48 16v24h-24v-24zm-64 0h24v24h-24zm104 24h-24v-24h24z" fill="#ffb401"/><path d="m24 152h144v32h-144z" fill="#ffa100"/><path d="m168 264h80v224h-80z" fill="#ffd873"/><path d="m488 176v-56h-224l-48 32v24z" fill="#ffd873"/><path d="m488 112h-224a7.99836 7.99836 0 0 0 -4.4375 1.34375l-48 32a7.99943 7.99943 0 0 0 -3.5625 6.65625v24a8.00008 8.00008 0 0 0 8 8h272a8.00008 8.00008 0 0 0 8-8v-56a8.00008 8.00008 0 0 0 -8-8zm-216 16h40v40h-40zm-48 28.28125 32-21.33331v33.05206h-32zm256 11.71875h-152v-40h40v32h16v-32h40v32h16v-32h40z" fill="#ffb401"/><path d="m168 176 24-152h31.659l24.341 152z" fill="#ffd873"/><path d="m255.89941 174.73486-24.34082-152a8 8 0 0 0 -7.89941-6.73486h-31.65918a8.00041 8.00041 0 0 0 -7.90234 6.75244l-24 152a8 8 0 0 0 7.90234 9.24756h80a7.99977 7.99977 0 0 0 7.89941-9.26514zm-27.33032-69.47973-25.25509-25.25513h21.2107zm-38.75366-16.12567 30.87057 30.87054h-35.74484zm27.02246-57.12946 2.57861 16.10266-16.1025-16.10266zm-4.15189 32h-18.9028l2.57764-16.32507zm-35.3237 104 5.05274-32h51.07764l5.12451 32z" fill="#ffc431"/><path d="m40 184h48v64h-48z" fill="#8098ab"/><path d="m368 160h80v48h-80z" fill="#8098ab"/><path d="m400 224h16v48h-16z" fill="#62798c"/><path d="m392 208h32a0 0 0 0 1 0 0v16a16 16 0 0 1 -16 16 16 16 0 0 1 -16-16v-16a0 0 0 0 1 0 0z" fill="#718799"/><path d="m392 272h32v32h-32z" fill="#8098ab"/><path d="m432 360h-25.167a22.83285 22.83285 0 0 1 -10.21192-43.25488l3.37892-1.68946v-11.05566h16v16a7.99967 7.99967 0 0 1 -4.42188 7.15527l-7.80078 3.90039a6.83278 6.83278 0 0 0 3.05566 12.94434h25.167z" fill="#62798c"/><path d="m440 408h-16v-13.69287l-16.833-26.7544-15.167 26.56983v13.87744h-16v-16a7.9998 7.9998 0 0 1 1.05176-3.96582l22.834-40a7.99979 7.99979 0 0 1 13.71875-.29443l25.167 40a8.00041 8.00041 0 0 1 1.22849 4.26025z" fill="#8098ab"/><path d="m248 256h-80a8.00008 8.00008 0 0 0 -8 8v224a8.00008 8.00008 0 0 0 8 8h80a8.00008 8.00008 0 0 0 8-8v-224a8.00008 8.00008 0 0 0 -8-8zm-72 112h49.19312l-49.19312 39.35449zm0 64h49.19312l-49.19312 39.35449zm64-16h-49.19312l49.19312-39.35449zm0-64h-49.19312l49.19312-39.35449zm-64-8.64551v-39.35449h49.19312zm64-71.35449v16h-64v-16zm-49.19312 208 49.19312-39.35449v39.35449z" fill="#ffc431"/><path d="m168 184h40a40 40 0 0 1 40 40v32a0 0 0 0 1 0 0h-80a0 0 0 0 1 0 0v-72a0 0 0 0 1 0 0z" fill="#c8dbf7"/><path d="m248 232h-48v-48h8a40 40 0 0 1 40 40z" fill="#b2c6eb"/><path d="m376 392h64v64h-64z" fill="#ffc431"/></svg>